<svg width="30" height="23" viewBox="0 0 30 23" fill="none" xmlns="http://www.w3.org/2000/svg">
<path fill-rule="evenodd" clip-rule="evenodd" d="M4.00004 2.77776C3.32503 2.77776 2.77782 3.32497 2.77782 3.99998V18.6666C2.77782 19.3417 3.32503 19.8889 4.00004 19.8889H26C26.6751 19.8889 27.2223 19.3417 27.2223 18.6666V3.99998C27.2223 3.32497 26.6751 2.77776 26 2.77776H4.00004ZM0.333374 3.99998C0.333374 1.97494 1.975 0.333313 4.00004 0.333313H26C28.0251 0.333313 29.6667 1.97494 29.6667 3.99998V18.6666C29.6667 20.6917 28.0251 22.3333 26 22.3333H4.00004C1.975 22.3333 0.333374 20.6917 0.333374 18.6666V3.99998Z" fill="#570099"/>
<path fill-rule="evenodd" clip-rule="evenodd" d="M0.333374 8.88887C0.333374 8.21385 0.880581 7.66665 1.5556 7.66665H28.4445C29.1195 7.66665 29.6667 8.21385 29.6667 8.88887C29.6667 9.56388 29.1195 10.1111 28.4445 10.1111H1.5556C0.880581 10.1111 0.333374 9.56388 0.333374 8.88887Z" fill="#570099"/>
</svg>
