<svg width="28" height="30" viewBox="0 0 28 30" fill="none" xmlns="http://www.w3.org/2000/svg">
<path fill-rule="evenodd" clip-rule="evenodd" d="M4.66663 5.66667C3.93025 5.66667 3.33329 6.26362 3.33329 7V25.6667C3.33329 26.403 3.93025 27 4.66663 27H23.3333C24.0697 27 24.6666 26.403 24.6666 25.6667V7C24.6666 6.26362 24.0697 5.66667 23.3333 5.66667H4.66663ZM0.666626 7C0.666626 4.79086 2.45749 3 4.66663 3H23.3333C25.5424 3 27.3333 4.79086 27.3333 7V25.6667C27.3333 27.8758 25.5424 29.6667 23.3333 29.6667H4.66663C2.45749 29.6667 0.666626 27.8758 0.666626 25.6667V7Z" fill="#570099"/>
<path fill-rule="evenodd" clip-rule="evenodd" d="M19.3333 0.333336C20.0697 0.333336 20.6666 0.930289 20.6666 1.66667V7C20.6666 7.73638 20.0697 8.33334 19.3333 8.33334C18.5969 8.33334 18 7.73638 18 7V1.66667C18 0.930289 18.5969 0.333336 19.3333 0.333336Z" fill="#570099"/>
<path fill-rule="evenodd" clip-rule="evenodd" d="M8.66663 0.333336C9.40301 0.333336 9.99996 0.930289 9.99996 1.66667V7C9.99996 7.73638 9.40301 8.33334 8.66663 8.33334C7.93025 8.33334 7.33329 7.73638 7.33329 7V1.66667C7.33329 0.930289 7.93025 0.333336 8.66663 0.333336Z" fill="#570099"/>
<path fill-rule="evenodd" clip-rule="evenodd" d="M0.666626 12.3333C0.666626 11.597 1.26358 11 1.99996 11H26C26.7363 11 27.3333 11.597 27.3333 12.3333C27.3333 13.0697 26.7363 13.6667 26 13.6667H1.99996C1.26358 13.6667 0.666626 13.0697 0.666626 12.3333Z" fill="#570099"/>
</svg>
