<svg width="32" height="32" viewBox="0 0 32 32" fill="none" xmlns="http://www.w3.org/2000/svg">
<path fill-rule="evenodd" clip-rule="evenodd" d="M16 1.33334C14.2319 1.33334 12.5362 2.03572 11.286 3.28596C10.0358 4.53621 9.33337 6.2319 9.33337 8.00001C9.33337 8.87549 9.50581 9.7424 9.84084 10.5512C10.1759 11.3601 10.6669 12.095 11.286 12.7141C11.9051 13.3331 12.64 13.8242 13.4488 14.1592C13.8062 14.3073 14.175 14.4235 14.5508 14.5072C14.7699 14.8182 15.0158 15.1105 15.286 15.3807C15.9051 15.9998 16.64 16.4908 17.4488 16.8259C18.2577 17.1609 19.1246 17.3333 20.0001 17.3333C20.8755 17.3333 21.7424 17.1609 22.5513 16.8259C23.3601 16.4908 24.095 15.9998 24.7141 15.3807C25.3332 14.7617 25.8242 14.0267 26.1593 13.2179C26.4943 12.4091 26.6667 11.5422 26.6667 10.6667C26.6667 8.89857 25.9643 7.20287 24.7141 5.95263C23.8113 5.04982 22.6762 4.4327 21.4493 4.15942C21.2311 3.84982 20.9855 3.55739 20.7141 3.28596C19.4638 2.03572 17.7682 1.33334 16 1.33334ZM22.6589 7.67831C22.6641 7.78522 22.6667 7.89248 22.6667 8.00001C22.6667 8.87549 22.4943 9.7424 22.1592 10.5512C21.8242 11.3601 21.3331 12.095 20.7141 12.7141C20.095 13.3331 19.3601 13.8242 18.5513 14.1592C18.4564 14.1985 18.3607 14.2356 18.2642 14.2704C18.3316 14.3029 18.4 14.3335 18.4693 14.3622C18.9546 14.5632 19.4748 14.6667 20.0001 14.6667C20.5253 14.6667 21.0455 14.5632 21.5308 14.3622C22.0161 14.1612 22.457 13.8665 22.8285 13.4951C23.1999 13.1237 23.4946 12.6827 23.6956 12.1974C23.8966 11.7121 24.0001 11.192 24.0001 10.6667C24.0001 9.60581 23.5786 8.5884 22.8285 7.83825C22.7734 7.78315 22.7168 7.72983 22.6589 7.67831ZM13.1716 5.17158C13.9218 4.42144 14.9392 4.00001 16 4.00001C17.0609 4.00001 18.0783 4.42144 18.8285 5.17158C19.5786 5.92173 20 6.93915 20 8.00001C20 8.5253 19.8966 9.04544 19.6956 9.53074C19.4945 10.016 19.1999 10.457 18.8285 10.8284C18.457 11.1999 18.0161 11.4945 17.5308 11.6955C17.0455 11.8965 16.5253 12 16 12C15.4748 12 14.9546 11.8965 14.4693 11.6955C13.984 11.4945 13.543 11.1999 13.1716 10.8284C12.8002 10.457 12.5055 10.016 12.3045 9.53074C12.1035 9.04544 12 8.5253 12 8.00001C12 6.93914 12.4215 5.92173 13.1716 5.17158Z" fill="#570099"/>
<path fill-rule="evenodd" clip-rule="evenodd" d="M3.22216 17.2222V26.1666H5.7777V25.1464C5.77729 25.1277 5.77729 25.1089 5.7777 25.0901V17.2222H3.22216ZM8.21641 15.9444C8.05479 15.4801 7.7398 15.1328 7.36247 14.9206C7.12825 14.7888 6.90653 14.7288 6.75189 14.6998C6.67195 14.6848 6.60204 14.6766 6.54639 14.6722C6.51834 14.6699 6.49327 14.6685 6.47164 14.6677L6.4416 14.6669L6.42846 14.6667L6.42236 14.6667L6.41943 14.6667L6.418 14.6667C6.41729 14.6667 6.41659 14.6667 6.41659 15.9395V14.6667H2.58328C2.16671 14.6667 1.77348 14.7899 1.44726 15.0345C1.13679 15.2674 0.958213 15.5563 0.856616 15.7848C0.755557 16.0122 0.711333 16.2223 0.690404 16.3636C0.679458 16.4375 0.673608 16.5015 0.670442 16.5513C0.668845 16.5765 0.667895 16.5986 0.667342 16.6173L0.666777 16.6428L0.66666 16.6536L0.666634 16.6586L0.666628 16.6609C0.666626 16.6615 0.666626 16.6632 1.9444 16.6632H0.666626V26.7256C0.666626 27.5579 1.08528 28.1576 1.6374 28.4682C1.87161 28.5999 2.09334 28.66 2.24797 28.689C2.32791 28.704 2.39783 28.7121 2.45348 28.7166C2.48153 28.7189 2.50659 28.7202 2.52822 28.721L2.55826 28.7219L2.57141 28.7221L2.5775 28.7221L2.58043 28.7221L2.58186 28.7221C2.58257 28.7221 2.58328 28.7221 2.58328 27.4443V28.7221H6.41659C6.83316 28.7221 7.22639 28.5989 7.55261 28.3543C7.86307 28.1214 8.04166 27.8325 8.14325 27.6039C8.24431 27.3765 8.28854 27.1664 8.30946 27.0252L8.30975 27.0232C8.95087 27.2947 9.5421 27.5502 10.0911 27.7889C10.2748 27.8687 10.4544 27.947 10.63 28.0235L10.6302 28.0236C11.4163 28.366 12.122 28.6735 12.7546 28.9336C14.2767 29.5594 15.572 29.9999 16.8607 29.9999C18.698 29.9999 20.183 29.2668 22.1105 28.0567C22.8431 27.5968 23.6231 27.0795 24.5196 26.485L24.5196 26.485L24.5197 26.485L24.5197 26.4849C26.0996 25.4372 28.0409 24.1497 30.7209 22.5143C31.323 22.1469 31.5135 21.3612 31.1466 20.7588C30.6135 19.8838 29.8447 19.1835 28.9116 18.8037C27.9711 18.4209 26.9445 18.3988 25.9895 18.7439L25.9629 18.7538L21.9997 20.2865C21.7258 19.7726 21.1578 19.1388 20.2138 19.1388H16.3672C16.3251 19.1005 16.2742 19.0531 16.2131 18.9945C16.1462 18.9305 16.0692 18.8552 15.9839 18.7717L15.9838 18.7717L15.9838 18.7717C15.7195 18.5133 15.3754 18.1769 15.0048 17.8549C14.0299 17.0078 12.5324 15.9444 10.6441 15.9444H8.21641ZM8.33324 18.5V24.2622C9.37399 24.6938 10.2927 25.0899 11.1099 25.4452C11.2978 25.5269 11.4797 25.6061 11.6561 25.6829L11.6583 25.6839L11.6609 25.685L11.6611 25.6851C12.4457 26.0269 13.1207 26.321 13.7264 26.57C15.2382 27.1916 16.1217 27.4443 16.8607 27.4443C17.9286 27.4443 18.8859 27.0637 20.7518 25.8923C21.3678 25.5056 22.1036 25.0184 22.9745 24.4417L22.9747 24.4415L22.9748 24.4415L22.9748 24.4415C24.3123 23.5559 25.9683 22.4593 27.9981 21.192C27.9815 21.1846 27.9649 21.1775 27.9483 21.1707C27.5937 21.0264 27.2239 21.0181 26.8695 21.1432L22.295 22.9122C22.2379 23.1763 22.1518 23.4384 22.0298 23.6827C21.7687 24.2056 21.1939 24.8888 20.2138 24.8888H13.6346C12.9289 24.8888 12.3569 24.3167 12.3569 23.611C12.3569 22.9053 12.9289 22.3333 13.6346 22.3333H19.8051C19.8228 22.2384 19.8332 22.1291 19.8332 22.0138C19.8332 21.8985 19.8228 21.7892 19.8051 21.6944H16.027C15.7191 21.6944 15.4762 21.5962 15.3388 21.5292C15.1914 21.4573 15.0666 21.3719 14.9734 21.302C14.7896 21.1643 14.6043 20.9922 14.4458 20.8404C14.3472 20.7461 14.2498 20.6509 14.1512 20.5545L14.1512 20.5544C13.8982 20.3071 13.6373 20.0521 13.3287 19.784C12.4654 19.0338 11.5705 18.5 10.6441 18.5H8.33324ZM7.05547 26.7256L7.60135 26.7256L7.60144 26.7256H7.05547ZM19.7382 21.4768C19.7381 21.4766 19.738 21.4765 19.738 21.4765L19.7396 21.4792C19.7389 21.478 19.7384 21.4772 19.7382 21.4768ZM19.738 22.5511L19.7396 22.5484C19.7386 22.5503 19.738 22.5511 19.738 22.5511Z" fill="#570099"/>
</svg>
