<svg width="30" height="28" viewBox="0 0 30 28" fill="none" xmlns="http://www.w3.org/2000/svg">
<path fill-rule="evenodd" clip-rule="evenodd" d="M12.3334 0C10.1242 0 8.33337 1.79086 8.33337 4V5.33333H4.33337C2.12423 5.33333 0.333374 7.12419 0.333374 9.33333V24C0.333374 26.2091 2.12423 28 4.33337 28H25.6667C27.8758 28 29.6667 26.2091 29.6667 24V9.33333C29.6667 7.12419 27.8758 5.33333 25.6667 5.33333H21.6667V4C21.6667 1.79086 19.8758 0 17.6667 0H12.3334ZM19 5.33333V4C19 3.26362 18.4031 2.66667 17.6667 2.66667H12.3334C11.597 2.66667 11 3.26362 11 4V5.33333H19ZM3.00004 9.33333C3.00004 8.59695 3.59699 8 4.33337 8H25.6667C26.4031 8 27 8.59695 27 9.33333V24C27 24.7364 26.4031 25.3333 25.6667 25.3333H4.33337C3.59699 25.3333 3.00004 24.7364 3.00004 24V9.33333ZM13 11.3333H17V14.6667H20.3334V18.6667H17V22H13V18.6667H9.66671V14.6667H13V11.3333Z" fill="#570099"/>
</svg>
