<svg width="185" height="48" viewBox="0 0 185 48" fill="none" xmlns="http://www.w3.org/2000/svg">
<g clip-path="url(#clip0_5002_68)">
<path d="M137.434 38.4858C139.782 41.3283 143.383 42.0283 146.959 41.9312C147.919 41.9041 148.93 41.8318 149.985 41.7099C151.039 41.5857 152.139 41.4051 153.277 41.1635C158.492 40.0572 164.204 38.6348 168.93 36.1603C173.678 33.6768 177.749 29.4029 178.044 23.9594C178.302 19.2316 175.367 15.1203 171.603 12.3726C166.71 8.80078 159.975 5.68282 153.744 6.98329C149.597 7.84801 145.905 10.2819 143.119 13.3795C139.721 17.1568 137.466 21.8664 136.208 26.6935C135.919 27.7998 135.709 28.8971 135.585 29.9628C135.233 32.9679 135.404 36.0294 137.438 38.4881" fill="url(#paint0_linear_5002_68)"/>
<g opacity="0.8">
<path d="M140.197 31.7848C141.36 35.2685 144.467 37.1944 147.84 38.3662C148.745 38.68 149.716 38.9712 150.746 39.2286C151.775 39.486 152.868 39.705 154.017 39.8811C159.287 40.6917 165.137 41.3825 170.449 40.7413C175.782 40.1001 181.135 37.5466 183.388 32.5705C185.344 28.2469 184.095 23.3724 181.578 19.4755C178.306 14.4113 173.149 9.11912 166.859 8.13248C162.673 7.47547 158.343 8.44179 154.618 10.3496C150.075 12.6751 146.26 16.2762 143.333 20.3379C142.663 21.2681 142.069 22.2186 141.566 23.1714C140.146 25.8514 139.197 28.7707 140.202 31.7848" fill="url(#paint1_linear_5002_68)"/>
</g>
<g opacity="0.6">
<path d="M133.822 26.9984C134.984 30.4821 138.091 32.408 141.464 33.5798C142.369 33.8936 143.34 34.1849 144.37 34.4422C145.399 34.6996 146.492 34.9186 147.641 35.0947C152.911 35.9053 158.761 36.5961 164.073 35.9549C169.406 35.3137 174.759 32.7602 177.013 27.7841C178.968 23.4605 177.719 18.586 175.202 14.6891C171.93 9.62494 166.774 4.33274 160.483 3.3461C156.298 2.68909 151.967 3.65542 148.242 5.56322C143.699 7.88872 139.884 11.4898 136.958 15.5516C136.287 16.4818 135.693 17.4323 135.19 18.385C133.77 21.065 132.821 23.9843 133.826 26.9984" fill="url(#paint2_linear_5002_68)"/>
</g>
<path d="M155.426 32.3175H155.263C154.859 32.2656 154.566 31.6425 154.537 31.5499L154.516 31.4889L154.521 31.4235C154.631 30.1433 154.767 28.2694 154.686 26.5038C153.751 26.3458 152.769 26.3164 151.759 26.418L151.459 31.5973C151.432 32.0895 150.66 32.1934 150.509 32.1934C150.073 32.1934 149.606 31.9518 149.549 31.4889V31.4641V31.4393L150.116 16.4839C150.134 16.1768 150.181 15.3753 151.125 15.3753C151.132 15.3753 151.929 15.4205 152.197 15.7027C152.279 15.7885 152.319 15.8968 152.315 16.0075L151.838 24.6795C152.297 24.7111 152.909 24.7224 153.505 24.7337C154.006 24.7428 154.487 24.7518 154.857 24.7721L154.889 24.2144C154.975 22.7311 155.002 21.3539 155.026 20.0218C155.051 18.7574 155.074 17.5631 155.146 16.3484C155.198 15.443 155.753 15.373 155.923 15.373C156.496 15.373 157.133 15.6372 157.171 16.2197V16.2355V16.2513L156.618 31.3535C156.589 31.8953 156.063 32.3153 155.424 32.3153L155.426 32.3175Z" fill="white"/>
<path d="M159.693 32.4191C159.664 32.4191 159.637 32.4191 159.607 32.4168C159.271 32.3943 158.982 32.2362 158.813 31.9856L158.749 31.893L158.759 31.7802C158.856 30.5384 159.192 24.7088 159.239 23.4626V23.4558C159.278 22.7988 159.375 18.9854 159.384 18.0033V17.9875C159.395 17.8091 159.357 15.9984 159.343 15.7297V15.7139L159.348 15.6123C159.382 15.0411 159.937 14.7002 160.836 14.7002C162.412 14.7002 163.619 15.1314 164.423 15.9849C165.211 16.8202 165.584 18.0507 165.496 19.5408C165.396 21.2635 164.674 22.5233 163.168 23.5596C166.015 25.1243 166.019 29.2063 165.945 30.4797C165.931 30.728 165.8 31.3083 164.882 31.3083C164.575 31.3083 164.227 31.3083 164.053 30.7438L164.039 30.7009V30.6558C163.985 28.0571 163.464 24.9617 161.292 24.9346C161.1 26.1606 161.028 27.4136 160.958 28.6306C160.899 29.6827 160.836 30.7709 160.696 31.8501L160.682 31.9495L160.614 32.024C160.389 32.2746 160.041 32.4236 159.686 32.4236L159.693 32.4191ZM161.177 16.6374L161.258 22.5707C162.599 22.1621 163.45 20.8436 163.518 19.6921C163.559 18.9967 163.387 17.7188 162.755 17.0483C162.473 16.748 162.134 16.6035 161.723 16.6035C161.47 16.6035 161.287 16.6193 161.177 16.6374Z" fill="white"/>
<path d="M38.4469 30.0892C37.5416 30.0892 36.7401 30.0034 36.0424 29.8318C35.3448 29.6602 34.7645 29.3961 34.3017 29.0439C33.8389 28.6894 33.4912 28.2514 33.2541 27.7253C33.0193 27.1993 32.9019 26.5829 32.9019 25.8785V25.6324C32.9019 25.5421 32.9109 25.4608 32.929 25.3885H34.234C34.2159 25.4969 34.2069 25.5872 34.2069 25.6595V25.8785C34.2069 26.6755 34.383 27.2963 34.7352 27.7389C35.0897 28.1836 35.5954 28.4907 36.2592 28.6646C36.9207 28.8361 37.6951 28.9219 38.5824 28.9219C39.3433 28.9219 40.0184 28.809 40.6076 28.5833C41.1969 28.3575 41.6597 28.0301 41.9939 27.6057C42.328 27.1789 42.4974 26.6597 42.4974 26.0433C42.4974 25.2824 42.2806 24.7067 41.8449 24.3161C41.4091 23.9278 40.8537 23.6275 40.1741 23.4198C39.4945 23.2121 38.7924 22.9998 38.0676 22.7808C37.5055 22.6183 36.9478 22.4422 36.3969 22.2503C35.8437 22.0606 35.347 21.8258 34.9023 21.5436C34.4575 21.2636 34.1053 20.9046 33.8411 20.4689C33.5792 20.0331 33.446 19.4822 33.446 18.8117C33.446 18.2676 33.5544 17.7709 33.7711 17.317C33.9879 16.8632 34.3107 16.4749 34.7352 16.1475C35.1619 15.8224 35.6902 15.5718 36.3269 15.4002C36.9613 15.2286 37.6951 15.1428 38.5282 15.1428C39.5239 15.1428 40.3502 15.2557 41.0005 15.4837C41.653 15.7095 42.1655 16.0188 42.5358 16.4072C42.906 16.7978 43.1702 17.2177 43.3237 17.6715C43.4772 18.1253 43.554 18.5859 43.554 19.0578V19.2474C43.554 19.3197 43.545 19.401 43.5269 19.4935H42.2219V19.0578C42.2219 18.6762 42.1361 18.2743 41.9645 17.8476C41.7907 17.4232 41.4385 17.0597 40.9034 16.7594C40.3683 16.4614 39.5487 16.3101 38.4424 16.3101C37.8261 16.3101 37.291 16.3643 36.8394 16.4726C36.3856 16.581 36.0063 16.7413 35.697 16.949C35.3877 17.159 35.1574 17.4164 35.0039 17.7234C34.8503 18.0328 34.7736 18.394 34.7736 18.8117C34.7736 19.4281 34.9542 19.8954 35.3177 20.2115C35.6789 20.5276 36.1508 20.7782 36.731 20.9588C37.3113 21.1394 37.9277 21.3404 38.5779 21.5571C39.1943 21.7581 39.8152 21.9567 40.4406 22.1554C41.066 22.3564 41.6372 22.6002 42.1519 22.8892C42.6667 23.1782 43.0799 23.5552 43.3892 24.0158C43.6985 24.4764 43.852 25.0815 43.852 25.8243C43.852 26.4948 43.7166 27.0932 43.4456 27.617C43.1724 28.143 42.7977 28.5923 42.3167 28.9626C41.8358 29.3328 41.2669 29.6151 40.6054 29.8047C39.9438 29.9944 39.2236 30.0892 38.4447 30.0892" fill="white"/>
<path d="M49.808 30.0621C49.2458 30.0621 48.8033 29.9718 48.4759 29.7912C48.1508 29.6105 47.9183 29.3419 47.7828 28.9897C47.6473 28.6374 47.5796 28.2243 47.5796 27.7524V16.6352H45.5679V15.4657H47.5796L47.8528 11.4988H48.8846V15.4657H51.7926V16.6352H48.8846V27.3708C48.8846 27.915 48.9433 28.3078 49.0607 28.5539C49.1781 28.8 49.4919 28.9219 49.9977 28.9219H51.7926V29.6828C51.612 29.7731 51.402 29.8453 51.1672 29.8995C50.9324 29.9537 50.6976 29.9944 50.4605 30.0215C50.2257 30.0485 50.0067 30.0621 49.808 30.0621Z" fill="white"/>
<path d="M57.9879 30.0891C57.3354 30.0891 56.7326 30.0124 56.1817 29.8588C55.6285 29.7053 55.1499 29.4705 54.7412 29.1522C54.3348 28.8361 54.0165 28.4319 53.7907 27.942C53.5649 27.4521 53.4498 26.8741 53.4498 26.2035C53.4498 25.2079 53.7026 24.3996 54.2106 23.7832C54.7186 23.1668 55.4253 22.6927 56.3307 22.3563C57.236 22.0222 58.3062 21.7941 59.5367 21.6767C60.7694 21.5593 62.1015 21.5006 63.5329 21.5006V19.3535C63.5329 18.701 63.411 18.1501 63.1649 17.6963C62.9211 17.2425 62.4944 16.8993 61.887 16.6645C61.2797 16.4297 60.4421 16.31 59.3719 16.31C58.3017 16.31 57.5544 16.441 56.9674 16.7051C56.3781 16.967 55.9627 17.3215 55.7166 17.7663C55.4727 18.2111 55.3485 18.7033 55.3485 19.2474V19.7102H54.0977C54.0797 19.6199 54.0707 19.5296 54.0707 19.4393V19.1119C54.0707 18.1704 54.3055 17.4096 54.7773 16.8293C55.2469 16.2491 55.913 15.8246 56.7755 15.5514C57.6357 15.2782 58.6268 15.145 59.7512 15.145C60.8755 15.145 61.7312 15.3031 62.4831 15.6214C63.2349 15.9398 63.8152 16.3913 64.2215 16.9806C64.6302 17.5699 64.8334 18.281 64.8334 19.1142V28.0301C64.8334 28.3755 64.8876 28.6103 64.996 28.7367C65.1043 28.8632 65.2782 28.9264 65.513 28.9264H66.7909V29.6873C66.4658 29.8318 66.1655 29.9311 65.8946 29.9853C65.6236 30.0395 65.3685 30.0666 65.1337 30.0666C64.6438 30.0666 64.287 29.9514 64.059 29.7256C63.8332 29.4999 63.6887 29.1905 63.6255 28.8022C63.5623 28.4139 63.5307 27.9917 63.5307 27.5379H63.341C62.9775 28.082 62.5079 28.5426 61.9277 28.9241C61.3474 29.3057 60.722 29.5947 60.0515 29.7934C59.3809 29.9921 58.6923 30.0914 57.9856 30.0914M58.094 28.9219C58.7104 28.9219 59.3357 28.818 59.9702 28.6103C60.6046 28.4026 61.1894 28.1068 61.7245 27.7275C62.2596 27.346 62.693 26.8899 63.0295 26.3548C63.3636 25.8197 63.5329 25.2282 63.5329 24.5757V22.7288C61.5213 22.7288 59.8821 22.8327 58.6133 23.0404C57.3444 23.2504 56.4074 23.6071 55.8001 24.1151C55.1928 24.6231 54.8902 25.3298 54.8902 26.2351C54.8902 26.8876 55.0347 27.4137 55.326 27.8111C55.615 28.2107 56.0056 28.4952 56.4955 28.6667C56.9854 28.8406 57.5183 28.9264 58.0985 28.9264" fill="white"/>
<path d="M69.3489 29.7619V16.633H67.1747V15.4635H69.3489V12.6368C69.3489 12.1852 69.4121 11.7495 69.5386 11.3318C69.665 10.9141 69.9088 10.5709 70.2723 10.2978C70.6336 10.0246 71.1506 9.89136 71.8212 9.89136C72.0379 9.89136 72.2524 9.89587 72.4601 9.9049C72.6678 9.91393 72.8665 9.932 73.0584 9.95909C73.2481 9.98618 73.4264 10.0268 73.589 10.081V11.0586H72.0943C71.5863 11.0586 71.2206 11.1805 70.9926 11.4266C70.7668 11.6705 70.6539 12.0295 70.6539 12.5013V15.4635H75.6819V12.6368C75.6819 12.1852 75.7451 11.7495 75.8716 11.3318C75.998 10.9141 76.2419 10.5709 76.6054 10.2978C76.9666 10.0246 77.4836 9.89136 78.1542 9.89136C78.3709 9.89136 78.5854 9.89587 78.7931 9.9049C79.0008 9.91393 79.1995 9.932 79.3914 9.95909C79.5811 9.98618 79.7594 10.0268 79.922 10.081V11.0586H78.4274C77.9194 11.0586 77.5536 11.1805 77.3278 11.4266C77.0998 11.6705 76.9869 12.0295 76.9869 12.5013V15.4635H79.922V16.633H76.9869V29.7619H75.6819V16.633H70.6539V29.7619H69.3489Z" fill="white"/>
<path d="M87.9416 30.0868C86.456 30.0868 85.2007 29.8204 84.1779 29.2853C83.1529 28.7502 82.3852 27.9307 81.8682 26.8244C81.3512 25.7203 81.0938 24.316 81.0938 22.6114C81.0938 20.9068 81.3512 19.4821 81.8682 18.3848C82.3852 17.2876 83.1551 16.4725 84.1779 15.9397C85.2007 15.4046 86.456 15.1382 87.9416 15.1382C89.4272 15.1382 90.7322 15.4069 91.7482 15.9397C92.7619 16.4748 93.5273 17.2898 94.0443 18.3848C94.5613 19.4821 94.8187 20.891 94.8187 22.6114C94.8187 24.3318 94.5591 25.7203 94.0443 26.8244C93.5273 27.9307 92.7619 28.7502 91.7482 29.2853C90.7322 29.8204 89.4656 30.0868 87.9416 30.0868ZM87.9416 27.75C88.847 27.75 89.5898 27.5739 90.17 27.2195C90.7502 26.865 91.1792 26.3276 91.4614 25.6029C91.7414 24.8782 91.8814 23.9638 91.8814 22.8575V22.3675C91.8814 21.2635 91.7414 20.3468 91.4614 19.6221C91.1792 18.8974 90.7502 18.3577 90.17 18.0055C89.5898 17.6511 88.847 17.475 87.9416 17.475C87.0362 17.475 86.3183 17.6511 85.7403 18.0055C85.16 18.3577 84.7288 18.8974 84.4488 19.6221C84.1666 20.3468 84.0266 21.2635 84.0266 22.3675V22.8575C84.0266 23.9638 84.1666 24.8782 84.4488 25.6029C84.7288 26.3276 85.16 26.8673 85.7403 27.2195C86.3183 27.5739 87.0543 27.75 87.9416 27.75Z" fill="white"/>
<path d="M99.8197 10.1104H96.993V29.7619H99.8197V10.1104Z" fill="white"/>
<path d="M108.842 30.0868C107.356 30.0868 106.101 29.8204 105.078 29.2853C104.053 28.7502 103.285 27.9307 102.768 26.8244C102.251 25.7203 101.994 24.316 101.994 22.6114C101.994 20.9068 102.251 19.4821 102.768 18.3848C103.285 17.2876 104.055 16.4725 105.078 15.9397C106.101 15.4046 107.356 15.1382 108.842 15.1382C110.327 15.1382 111.632 15.4069 112.648 15.9397C113.662 16.4748 114.427 17.2898 114.944 18.3848C115.461 19.4821 115.719 20.891 115.719 22.6114C115.719 24.3318 115.459 25.7203 114.944 26.8244C114.427 27.9307 113.662 28.7502 112.648 29.2853C111.632 29.8204 110.366 30.0868 108.842 30.0868ZM108.842 27.75C109.747 27.75 110.49 27.5739 111.07 27.2195C111.65 26.865 112.079 26.3276 112.362 25.6029C112.641 24.8782 112.784 23.9638 112.784 22.8575V22.3675C112.784 21.2635 112.644 20.3468 112.362 19.6221C112.079 18.8974 111.65 18.3577 111.07 18.0055C110.49 17.6511 109.747 17.475 108.842 17.475C107.936 17.475 107.218 17.6511 106.64 18.0055C106.06 18.3577 105.629 18.8974 105.349 19.6221C105.067 20.3468 104.927 21.2635 104.927 22.3675V22.8575C104.927 23.9638 105.067 24.8782 105.349 25.6029C105.629 26.3276 106.06 26.8673 106.64 27.2195C107.218 27.5739 107.954 27.75 108.842 27.75Z" fill="white"/>
<path d="M120.286 34.7085C119.634 34.7085 119.022 34.5731 118.453 34.3021C117.882 34.0289 117.423 33.6406 117.08 33.1326C116.737 32.6269 116.563 32.0082 116.563 31.2858C116.563 30.4888 116.784 29.8408 117.229 29.3418C117.672 28.8429 118.193 28.4681 118.792 28.2152C118.356 28.0165 118.008 27.7253 117.744 27.346C117.482 26.9667 117.349 26.5309 117.349 26.041C117.349 25.3704 117.593 24.8286 118.083 24.4109C118.573 23.9932 119.144 23.7223 119.794 23.5958C119.16 23.1804 118.665 22.6543 118.313 22.0199C117.959 21.3855 117.782 20.6698 117.782 19.8728C117.782 18.9132 118.008 18.0846 118.462 17.387C118.916 16.6893 119.591 16.1407 120.487 15.7411C121.384 15.3437 122.476 15.1428 123.763 15.1428C124.325 15.1428 124.854 15.1834 125.353 15.2647C125.852 15.346 126.299 15.4589 126.698 15.6056C127.333 15.2782 127.787 14.8854 128.057 14.4225C128.331 13.9597 128.493 13.5307 128.547 13.1311H131.32C131.32 13.7294 131.198 14.269 130.952 14.7477C130.708 15.2286 130.372 15.6282 129.947 15.9443C129.521 16.2626 129.01 16.4839 128.412 16.6103C128.866 17.028 129.204 17.5112 129.43 18.0643C129.656 18.6175 129.771 19.2203 129.771 19.8705C129.771 20.812 129.552 21.6383 129.119 22.3428C128.685 23.0494 128.028 23.6026 127.148 24.0022C126.269 24.4018 125.186 24.6005 123.899 24.6005H121.67C121.237 24.6005 120.887 24.6908 120.625 24.8715C120.363 25.0521 120.23 25.3253 120.23 25.6865C120.23 25.9958 120.356 26.2487 120.609 26.4474C120.862 26.6461 121.198 26.7454 121.616 26.7454H127.649C128.699 26.7454 129.57 27.0931 130.259 27.7907C130.947 28.4884 131.291 29.3802 131.291 30.4684C131.291 31.2654 131.087 31.9857 130.679 32.6291C130.272 33.2726 129.701 33.7806 128.967 34.1509C128.234 34.5211 127.387 34.7085 126.425 34.7085H120.282H120.286ZM121.21 32.6156H126.403C126.784 32.6156 127.127 32.5433 127.434 32.3988C127.744 32.2543 127.987 32.0489 128.168 31.787C128.349 31.5251 128.439 31.2293 128.439 30.9042C128.439 30.3601 128.272 29.9356 127.936 29.6263C127.599 29.317 127.188 29.1635 126.698 29.1635H121.207C120.699 29.1635 120.275 29.3305 119.93 29.6669C119.584 30.0011 119.413 30.4143 119.413 30.9042C119.413 31.3941 119.58 31.8231 119.916 32.1414C120.25 32.4575 120.681 32.6178 121.207 32.6178M123.79 22.5618C124.858 22.5618 125.655 22.3224 126.181 21.8415C126.707 21.3606 126.969 20.7059 126.969 19.8705C126.969 19.0351 126.707 18.3623 126.181 17.8995C125.655 17.4389 124.858 17.2064 123.79 17.2064C122.722 17.2064 121.923 17.4367 121.399 17.8995C120.873 18.3623 120.611 19.0193 120.611 19.8705C120.611 20.4146 120.724 20.8888 120.952 21.2974C121.178 21.7038 121.533 22.0177 122.013 22.2344C122.494 22.4511 123.088 22.5595 123.795 22.5595" fill="white"/>
<path d="M135.018 34.7085C134.474 34.7085 134.022 34.6678 133.659 34.5866C133.295 34.5053 133.07 34.4556 132.979 34.4375V32.3988H134.339C134.736 32.3988 135.14 32.3085 135.549 32.1256C135.955 31.945 136.323 31.6537 136.648 31.2564C136.973 30.859 137.247 30.36 137.463 29.7617L131.891 15.4656H134.853L137.626 22.5866C137.752 22.9117 137.892 23.3203 138.048 23.8103C138.202 24.3002 138.355 24.7969 138.511 25.3049C138.664 25.8129 138.795 26.2644 138.906 26.6641H139.041C139.132 26.3931 139.227 26.0793 139.328 25.7271C139.428 25.3726 139.531 25.0069 139.64 24.6276C139.748 24.246 139.857 23.8802 139.965 23.528C140.073 23.1736 140.164 22.871 140.238 22.6182L142.548 15.4701H145.429L140.59 29.2221C140.319 29.983 140.019 30.6987 139.694 31.3692C139.369 32.0398 138.992 32.6246 138.565 33.1235C138.138 33.6202 137.635 34.0108 137.057 34.2908C136.477 34.573 135.797 34.713 135.018 34.713" fill="white"/>
<path d="M19.5856 23.3836L20.7754 25.7791C18.5651 26.409 15.91 26.7273 13.2684 26.7273C6.84506 26.7273 0.340454 24.8331 0.340454 21.2139C0.340454 19.4686 1.8509 18.1253 4.13575 17.2019C4.13575 17.2019 4.58053 18.3623 5.20819 19.5928V19.5973C3.58711 20.234 2.97526 20.9181 2.97526 21.2139C2.97526 21.5277 3.66162 22.2773 5.50621 22.9433C7.15889 23.5416 9.26764 23.9209 11.5683 24.0474L11.7218 24.2528C11.7805 24.3341 11.8415 24.4154 11.9024 24.4989L12.8462 25.7655C13.0697 25.9845 13.44 25.9845 13.6635 25.7655L14.605 24.5034H14.6163C14.7314 24.3499 14.8443 24.1964 14.9549 24.0474C16.6347 23.9571 18.2129 23.729 19.5856 23.3813V23.3836ZM13.2684 15.7027C10.7036 15.7027 8.12521 16.0052 5.95325 16.5968L6.89925 19.06C7.59238 18.8816 8.34873 18.9268 9.14572 19.051C9.29022 18.7371 9.51825 18.4572 9.82757 18.2427C10.7578 17.597 12.0537 17.8069 12.7198 18.7078L13.2684 19.4506L13.8193 18.71C14.4898 17.8114 15.7835 17.6082 16.7137 18.2562C17.0976 18.5249 17.3572 18.8974 17.4836 19.3061C18.7977 19.1638 19.9965 19.1119 21.0328 19.4844C22.8774 20.1505 23.5638 20.8978 23.5638 21.2139C23.5638 21.53 23.1167 22.1757 21.2834 22.8395C21.9653 24.149 22.3694 25.2056 22.3694 25.2056C24.8101 24.2799 26.1963 23.0291 26.1963 21.2139C26.1963 17.5947 19.6917 15.7004 13.2684 15.7004V15.7027Z" fill="url(#paint3_linear_5002_68)"/>
<path d="M14.2776 27.0457L12.3721 28.8609C11.1348 27.5446 9.90433 26.0252 8.75061 24.377C6.63283 21.3539 5.0095 18.2336 4.17413 15.5943C3.47874 13.393 3.03622 10.5008 4.86726 9.22066C6.69831 7.93825 9.26313 9.34484 11.0942 10.7514C11.6722 11.1939 12.2614 11.7019 12.8552 12.2619C12.8552 12.2619 12.2231 12.8715 11.0603 14.1855C10.5297 13.6843 10.0037 13.2327 9.49116 12.8398C7.84074 11.5732 6.89699 11.352 6.53801 11.352C6.45221 11.352 6.39803 11.3655 6.37771 11.3791C6.27385 11.4513 5.90809 12.3409 6.68702 14.8041C7.16792 16.3281 7.95137 18.0417 8.96284 19.8118C8.94704 20.2385 9.07122 20.6743 9.34666 21.0468L10.7239 22.9117H10.7171L11.7196 24.2573C11.7783 24.3386 11.8392 24.4199 11.9002 24.5034L12.8439 25.77C12.9613 25.8852 13.1194 25.9371 13.2752 25.9326C13.6071 26.3209 13.9412 26.6957 14.2754 27.0502L14.2776 27.0457ZM22.3581 26.8357C21.525 24.1941 19.8994 21.0762 17.7817 18.053C16.5421 16.2807 15.2123 14.6573 13.8825 13.2756L12.2118 15.3392C12.9975 16.1723 13.7832 17.1025 14.5508 18.1004C15.2214 17.7663 16.0567 17.8001 16.7092 18.2562C17.6372 18.9042 17.8471 20.1595 17.1788 21.0604L16.8786 21.4645C18.2287 23.6387 19.2627 25.7768 19.8475 27.6304C20.6242 30.0937 20.2607 30.9832 20.1568 31.0555C20.053 31.1277 19.0934 31.1684 17.0434 29.5947C16.4541 29.1431 15.849 28.6148 15.4833 28.2581L15.4765 28.2649C14.7563 29.1251 13.6996 30.1953 13.6996 30.1953C14.1241 30.6062 14.7901 31.1842 15.4404 31.6831C16.7634 32.6991 18.4725 33.7174 20.0101 33.7174C20.5971 33.7174 21.1615 33.5683 21.6673 33.2139C23.4983 31.9315 23.0535 29.0393 22.3604 26.8402L22.3581 26.8357Z" fill="url(#paint4_linear_5002_68)"/>
<path d="M19.3372 16.2987C19.3372 16.2987 20.6851 16.5674 21.8772 17.0032C21.218 18.5023 20.9403 19.0735 20.9403 19.0735C20.0981 20.7962 19.0279 22.6024 17.7884 24.3748C15.6729 27.4002 13.3 29.9943 11.1032 31.6831C9.27441 33.0897 6.70959 34.4986 4.87629 33.2161C4.37055 32.8617 4.03641 32.383 3.83546 31.8321C3.30941 30.3872 3.67968 28.4342 4.1809 26.8425C4.27347 26.5512 4.37281 26.2555 4.47667 25.9687C4.47667 25.9687 5.78165 26.4293 6.94892 26.6551L7.02117 26.6732C6.90602 26.9825 6.79087 27.3121 6.68927 27.635C5.9126 30.0982 6.27836 30.9877 6.38222 31.06C6.48608 31.1322 7.44562 31.1706 9.49341 29.597C10.7081 28.6622 11.9928 27.4069 13.2571 25.9303C13.4039 25.9303 13.5506 25.8762 13.6612 25.7678L14.6027 24.5057H14.614C15.2236 23.6861 15.8084 22.9004 15.8084 22.9004L17.1788 21.0604C17.4588 20.6833 17.583 20.243 17.5672 19.8118C17.8742 19.2722 18.1632 18.7394 18.4251 18.2133C18.9286 17.2086 19.3327 16.2987 19.3327 16.2987H19.3372ZM21.6627 9.21388C19.8317 7.93373 17.2669 9.34032 15.4358 10.7469C13.2413 12.4357 10.8661 15.0299 8.75061 18.0553C7.59689 19.7034 6.59219 21.381 5.7794 22.993L4.646 25.4201C4.646 25.4201 5.66199 25.8152 7.27403 26.1471C7.76623 24.824 8.13876 24.1603 8.13876 24.1603C8.58354 23.2797 9.09379 22.3744 9.66049 21.4622L9.35117 21.0423C8.68513 20.1392 8.89962 18.8861 9.83208 18.2404C10.4868 17.7866 11.3199 17.7573 11.9905 18.0914C13.6545 15.9217 15.4133 14.0861 17.0434 12.8331C19.0912 11.2594 20.0507 11.2978 20.1546 11.37C20.1749 11.3836 20.2042 11.4287 20.2358 11.51C20.3578 11.8464 20.4752 12.8105 19.8498 14.7951C19.7482 15.1157 19.6353 15.4453 19.5066 15.7817C21.0351 16.1001 22.0466 16.5042 22.0466 16.5042C22.1617 16.1926 22.2656 15.8856 22.3604 15.5853C23.0535 13.384 23.496 10.4918 21.665 9.21163L21.6627 9.21388Z" fill="url(#paint5_linear_5002_68)"/>
</g>
<defs>
<linearGradient id="paint0_linear_5002_68" x1="140.175" y1="41.2809" x2="170.512" y2="10.9457" gradientUnits="userSpaceOnUse">
<stop stop-color="#FF1CFF"/>
<stop offset="1" stop-color="#8900F2"/>
</linearGradient>
<linearGradient id="paint1_linear_5002_68" x1="141.732" y1="35.3133" x2="181.081" y2="17.7777" gradientUnits="userSpaceOnUse">
<stop stop-color="#FF1CFF"/>
<stop offset="1" stop-color="#8900F2"/>
</linearGradient>
<linearGradient id="paint2_linear_5002_68" x1="135.358" y1="30.5284" x2="174.707" y2="12.9927" gradientUnits="userSpaceOnUse">
<stop stop-color="#FF1CFF"/>
<stop offset="1" stop-color="#8900F2"/>
</linearGradient>
<linearGradient id="paint3_linear_5002_68" x1="0.426249" y1="20.0918" x2="26.1128" y2="22.3405" gradientUnits="userSpaceOnUse">
<stop stop-color="#9C35F4"/>
<stop offset="0.2" stop-color="#A035F4"/>
<stop offset="0.4" stop-color="#AC38F5"/>
<stop offset="0.61" stop-color="#C13DF8"/>
<stop offset="0.81" stop-color="#DE43FB"/>
<stop offset="1" stop-color="#FF4BFF"/>
</linearGradient>
<linearGradient id="paint4_linear_5002_68" x1="11.3245" y1="32.243" x2="15.2123" y2="10.1892" gradientUnits="userSpaceOnUse">
<stop stop-color="#9C35F4"/>
<stop offset="0.2" stop-color="#A035F4"/>
<stop offset="0.4" stop-color="#AC38F5"/>
<stop offset="0.61" stop-color="#C13DF8"/>
<stop offset="0.81" stop-color="#DE43FB"/>
<stop offset="1" stop-color="#FF4BFF"/>
</linearGradient>
<linearGradient id="paint5_linear_5002_68" x1="4.87178" y1="33.2116" x2="21.6718" y2="9.22066" gradientUnits="userSpaceOnUse">
<stop stop-color="#9C35F4"/>
<stop offset="0.2" stop-color="#A035F4"/>
<stop offset="0.4" stop-color="#AC38F5"/>
<stop offset="0.61" stop-color="#C13DF8"/>
<stop offset="0.81" stop-color="#DE43FB"/>
<stop offset="1" stop-color="#FF4BFF"/>
</linearGradient>
<clipPath id="clip0_5002_68">
<rect width="184.319" height="48" fill="white" transform="translate(0.340454)"/>
</clipPath>
</defs>
</svg>
