<svg width="30" height="30" viewBox="0 0 30 30" fill="none" xmlns="http://www.w3.org/2000/svg">
<path fill-rule="evenodd" clip-rule="evenodd" d="M15 2.99998C8.37262 2.99998 3.00004 8.37256 3.00004 15C3.00004 21.6274 8.37262 27 15 27C21.6275 27 27 21.6274 27 15C27 8.37256 21.6275 2.99998 15 2.99998ZM0.333374 15C0.333374 6.8998 6.89986 0.333313 15 0.333313C23.1002 0.333313 29.6667 6.8998 29.6667 15C29.6667 23.1002 23.1002 29.6666 15 29.6666C6.89986 29.6666 0.333374 23.1002 0.333374 15Z" fill="#570099"/>
<path fill-rule="evenodd" clip-rule="evenodd" d="M15 5.66665C15.7364 5.66665 16.3334 6.2636 16.3334 6.99998V14.1759L20.9297 16.4741C21.5883 16.8034 21.8553 17.6043 21.5259 18.2629C21.1966 18.9216 20.3957 19.1885 19.7371 18.8592L14.4038 16.1925C13.952 15.9667 13.6667 15.505 13.6667 15V6.99998C13.6667 6.2636 14.2637 5.66665 15 5.66665Z" fill="#570099"/>
</svg>
